<?xml version="1.0" encoding="UTF-8" standalone="no"?>
<!DOCTYPE svg PUBLIC "-//W3C//DTD SVG 1.1//EN" "http://www.w3.org/Graphics/SVG/1.1/DTD/svg11.dtd">
<svg version="1.1" xmlns="http://www.w3.org/2000/svg" xmlns:xlink="http://www.w3.org/1999/xlink" preserveAspectRatio="xMidYMid meet" viewBox="0 0 640 640" width="16" height="16"><defs><path d="M479.11 30.03L480.88 30.28L482.64 30.64L484.4 31.12L486.16 31.73L487.9 32.46L489.64 33.33L493.86 35.8L497.58 38.43L500.84 41.21L503.64 44.12L506 47.15L507.95 50.31L509.49 53.57L510.65 56.94L511.44 60.4L511.89 63.95L512 67.58L511.8 71.28L511.3 75.04L510.52 78.86L509.48 82.72L508.2 86.61L506.69 90.54L504.97 94.49L503.06 98.45L500.97 102.42L498.73 106.38L496.35 110.33L493.85 114.26L491.24 118.16L488.55 122.03L485.79 125.85L482.97 129.63L480.13 133.34L477.26 136.98L474.4 140.54L471.55 144.02L468.74 147.41L465.99 150.7L463.3 153.87L460.7 156.93L458.21 159.86L455.84 162.66L453.62 165.32L451.55 167.83L449.65 170.17L446.79 173.84L443.91 177.49L441.03 181.14L438.14 184.78L435.25 188.42L432.35 192.06L429.45 195.68L426.54 199.31L423.62 202.92L420.71 206.54L417.78 210.15L414.86 213.75L411.93 217.35L408.99 220.95L406.06 224.55L403.12 228.14L400.18 231.73L397.23 235.32L394.29 238.9L391.34 242.48L388.39 246.07L385.44 249.65L382.49 253.23L379.53 256.8L376.58 260.38L373.62 263.96L370.67 267.53L367.71 271.11L364.76 274.69L361.81 278.27L358.85 281.84L355.9 285.42L352.95 289.01L350 292.59L347.06 296.17L344.11 299.76L341.17 303.35L338.23 306.94L335.29 310.53L332.36 314.13L330.1 316.87L327.85 319.62L325.62 322.38L323.39 325.16L321.18 327.94L318.97 330.74L316.77 333.54L314.58 336.35L312.39 339.17L310.21 342L308.04 344.83L305.86 347.66L303.69 350.5L301.52 353.35L299.35 356.19L297.18 359.04L295.01 361.89L292.84 364.75L290.66 367.6L288.48 370.45L286.3 373.29L284.11 376.14L281.91 378.98L279.7 381.82L277.49 384.66L275.26 387.48L273.03 390.31L270.78 393.12L268.52 395.93L266.25 398.73L263.97 401.52L261.67 404.3L259.35 407.07L257.02 409.83L254.66 412.57L252.29 415.31L249.9 418.03L247.49 420.73L245.06 423.42L242.61 426.1L241.18 427.66L239.71 429.28L238.19 430.96L236.62 432.68L235.01 434.44L233.36 436.24L231.66 438.08L229.92 439.94L228.15 441.82L226.33 443.72L224.48 445.62L222.6 447.54L220.68 449.45L218.72 451.36L216.74 453.26L214.73 455.14L212.68 457.01L210.61 458.84L208.52 460.65L206.4 462.42L204.25 464.15L202.09 465.83L199.9 467.46L197.69 469.03L195.47 470.54L193.23 471.98L190.97 473.34L188.7 474.63L186.42 475.84L184.12 476.96L181.82 477.98L179.51 478.9L177.19 479.72L174.86 480.43L172.53 481.02L170.2 481.5L167.86 481.84L165.52 482.06L163.19 482.14L160.85 482.08L158.93 481.98L157.02 481.81L155.12 481.59L153.23 481.3L151.36 480.95L149.5 480.54L147.66 480.08L145.83 479.56L144.02 478.99L142.22 478.37L140.44 477.7L138.67 476.98L136.92 476.22L135.18 475.41L133.46 474.57L131.75 473.68L130.06 472.75L128.39 471.78L126.73 470.78L125.09 469.75L123.46 468.68L121.86 467.59L120.26 466.47L118.69 465.32L117.13 464.14L115.6 462.94L114.08 461.73L112.57 460.49L111.09 459.23L109.62 457.96L108.17 456.68L106.74 455.38L105.33 454.07L103.94 452.75L102.56 451.43L101.21 450.1L99.87 448.76L98.56 447.43L97.26 446.09L95.99 444.76L92.96 441.58L89.89 438.32L86.78 434.97L83.63 431.54L80.45 428.03L77.26 424.44L74.04 420.78L70.82 417.05L67.59 413.25L64.37 409.38L61.16 405.45L57.96 401.46L54.78 397.41L51.63 393.31L48.52 389.15L45.44 384.94L42.41 380.69L39.44 376.39L36.52 372.05L33.67 367.67L30.89 363.25L28.19 358.8L25.57 354.32L23.05 349.81L20.62 345.27L18.29 340.71L16.07 336.13L13.97 331.54L11.99 326.92L10.14 322.3L8.42 317.66L6.84 313.01L5.41 308.37L4.13 303.72L3.01 299.07L2.05 294.42L1.27 289.78L0.67 285.15L0.25 280.53L0.01 275.92L0.03 272.5L0.2 269.31L0.52 266.33L0.99 263.57L1.6 261.02L2.35 258.68L3.22 256.53L4.22 254.57L5.34 252.8L6.57 251.22L7.9 249.81L9.34 248.58L10.87 247.51L12.49 246.6L14.2 245.85L15.98 245.25L17.84 244.8L19.76 244.49L21.74 244.31L23.79 244.26L25.88 244.34L28.01 244.54L30.18 244.85L32.39 245.27L34.62 245.8L36.88 246.42L39.15 247.14L41.43 247.95L43.72 248.84L46 249.8L48.28 250.84L50.54 251.95L52.79 253.12L55.02 254.34L57.21 255.62L59.37 256.94L61.49 258.31L63.56 259.71L65.59 261.14L67.55 262.59L70.2 264.67L72.82 266.77L75.42 268.89L77.99 271.03L80.53 273.19L83.05 275.38L85.54 277.58L88.02 279.79L90.47 282.03L92.9 284.28L95.32 286.54L97.72 288.82L100.1 291.11L102.47 293.42L104.82 295.74L107.16 298.06L109.49 300.4L111.81 302.75L114.12 305.1L116.42 307.46L118.72 309.83L121.01 312.21L123.3 314.59L125.58 316.97L127.86 319.36L130.14 321.75L132.42 324.14L134.7 326.53L136.99 328.93L139.28 331.32L141.57 333.71L143.87 336.1L146.18 338.48L148.49 340.86L150.82 343.24L153.16 345.6L155.5 347.97L157.86 350.32L160.24 352.67L162.63 355.01L163.71 353.01L164.83 351.03L165.98 349.07L167.15 347.11L168.36 345.17L169.59 343.24L170.86 341.33L172.14 339.42L173.46 337.53L174.79 335.65L176.16 333.78L177.54 331.93L178.94 330.08L180.37 328.25L181.81 326.42L183.28 324.61L184.76 322.81L186.25 321.02L187.76 319.23L189.29 317.46L190.83 315.7L192.38 313.95L193.94 312.21L195.52 310.48L197.1 308.75L198.69 307.04L200.29 305.34L201.89 303.64L203.5 301.95L205.12 300.27L206.74 298.6L208.36 296.94L209.98 295.29L211.6 293.64L213.22 292L214.84 290.37L216.46 288.75L218.07 287.13L219.68 285.52L221.28 283.92L224.07 281.05L226.85 278.18L229.62 275.31L232.38 272.43L235.12 269.55L237.86 266.67L240.58 263.78L243.3 260.89L246 258L248.7 255.11L251.39 252.21L254.08 249.31L256.76 246.41L259.43 243.51L262.1 240.6L264.76 237.69L267.42 234.78L270.07 231.87L272.72 228.96L275.37 226.04L278.02 223.13L280.67 220.21L283.32 217.29L285.96 214.37L288.61 211.45L291.26 208.52L293.91 205.6L296.56 202.67L299.22 199.75L301.88 196.82L304.54 193.89L307.21 190.96L309.89 188.03L312.57 185.1L315.25 182.17L317.95 179.24L320.65 176.3L323.36 173.37L326.08 170.44L328.8 167.51L331.26 164.83L333.71 162.15L336.14 159.45L338.57 156.75L340.98 154.03L343.39 151.3L345.79 148.57L348.18 145.82L350.56 143.08L352.93 140.32L355.31 137.56L357.67 134.8L360.04 132.03L362.4 129.26L364.76 126.49L367.12 123.72L369.48 120.94L371.84 118.17L374.2 115.4L376.57 112.64L378.93 109.87L381.31 107.11L383.68 104.36L386.07 101.61L388.46 98.86L390.85 96.13L393.26 93.4L395.67 90.69L398.1 87.98L400.53 85.28L402.98 82.6L405.44 79.93L407.91 77.27L410.4 74.62L412.9 71.99L415.42 69.38L417.95 66.78L420.5 64.2L423.07 61.64L425.66 59.1L426.81 58.01L428.01 56.9L429.24 55.75L430.5 54.58L431.8 53.4L433.13 52.19L434.5 50.98L435.9 49.76L437.33 48.54L438.78 47.32L440.27 46.11L441.78 44.91L443.31 43.72L444.87 42.56L446.45 41.41L448.06 40.3L449.68 39.22L451.32 38.17L452.98 37.17L454.65 36.21L456.34 35.31L458.05 34.45L459.76 33.66L461.49 32.93L463.23 32.26L464.97 31.67L466.73 31.15L468.49 30.72L470.25 30.37L472.02 30.1L473.79 29.94L475.57 29.86L477.34 29.89L479.11 30.03ZM25.78 269.7L27.82 270.67L29.74 271.46L31.61 272.13L33.52 272.71L35.56 273.25L36.52 272.82L37.32 272.56L37.99 272.42L38.57 272.37L39.11 272.37L35.59 270.55L32.5 269.38L29.84 268.85L27.6 268.95L25.78 269.7Z" id="e1IflWqwgV"></path></defs><g><g><g><use xlink:href="#e1IflWqwgV" opacity="1" fill="#ffffff" fill-opacity="1"></use><g><use xlink:href="#e1IflWqwgV" opacity="1" fill-opacity="0" stroke="#000000" stroke-width="1" stroke-opacity="0"></use></g></g></g></g></svg>