<?xml version="1.0" encoding="iso-8859-1"?>
<!-- Generator: Adobe Illustrator 19.0.0, SVG Export Plug-In . SVG Version: 6.00 Build 0)  -->
<svg version="1.1" id="Layer_1" xmlns="http://www.w3.org/2000/svg" xmlns:xlink="http://www.w3.org/1999/xlink" x="0px" y="0px"
	 viewBox="0 0 512 512" style="enable-background:new 0 0 512 512;" xml:space="preserve">
<circle style="fill:#FF6D3B;" cx="256" cy="256" r="256"/>
<path style="fill:#FFFFFF;" d="M149.012,158.826v181.876h238.625c14.868,0,26.915-12.05,26.915-26.918V158.829h-265.54V158.826z"/>
<g>
	<rect x="300.891" y="221.812" style="fill:#D9D8D7;" width="2.831" height="12.321"/>
	<rect x="319.29" y="251.21" style="fill:#D9D8D7;" width="17.005" height="2.831"/>
	<rect x="351.86" y="271.096" style="fill:#D9D8D7;" width="2.837" height="12.321"/>
	<rect x="300.891" y="271.096" style="fill:#D9D8D7;" width="2.831" height="12.321"/>
	<rect x="232.415" y="221.812" style="fill:#D9D8D7;" width="2.834" height="12.321"/>
	<rect x="198.953" y="197.173" style="fill:#D9D8D7;" width="2.831" height="12.321"/>
	<rect x="232.415" y="258.775" style="fill:#D9D8D7;" width="2.834" height="12.321"/>
</g>
<rect x="200.341" y="288.173" style="fill:#CCCBCA;" width="16.49" height="2.831"/>
<rect x="183.362" y="209.491" style="fill:#16C6CC;" width="169.918" height="12.321"/>
<rect x="323.551" y="214.237" style="fill:#FFFFFF;" width="25.478" height="2.831"/>
<rect x="285.333" y="209.491" style="fill:#242D3C;" width="33.97" height="12.321"/>
<g>
	<rect x="289.561" y="214.237" style="fill:#FFFFFF;" width="25.471" height="2.831"/>
	<rect x="255.571" y="214.237" style="fill:#FFFFFF;" width="25.468" height="2.831"/>
	<rect x="221.58" y="214.237" style="fill:#FFFFFF;" width="25.478" height="2.831"/>
	<rect x="187.62" y="214.237" style="fill:#FFFFFF;" width="25.478" height="2.831"/>
</g>
<rect x="285.333" y="234.143" style="fill:#16C6CC;" width="33.97" height="36.96"/>
<g>
	<rect x="216.857" y="234.143" style="fill:#FF6D3B;" width="33.967" height="24.639"/>
	<rect x="166.383" y="283.417" style="fill:#FF6D3B;" width="33.967" height="12.318"/>
	<rect x="336.301" y="283.417" style="fill:#FF6D3B;" width="33.967" height="24.642"/>
</g>
<rect x="336.301" y="234.143" style="fill:#242D3C;" width="33.967" height="36.96"/>
<rect x="285.333" y="283.417" style="fill:#16C6CC;" width="33.97" height="12.318"/>
<g>
	<rect x="183.362" y="184.852" style="fill:#242D3C;" width="33.967" height="12.321"/>
	<rect x="216.857" y="271.096" style="fill:#242D3C;" width="33.967" height="36.963"/>
</g>
<rect x="187.62" y="189.605" style="fill:#3E4959;" width="25.478" height="2.831"/>
<g>
	<rect x="170.631" y="288.173" style="fill:#E64717;" width="25.481" height="2.831"/>
	<rect x="221.092" y="238.889" style="fill:#E64717;" width="25.478" height="2.828"/>
	<rect x="227.668" y="251.21" style="fill:#E64717;" width="12.318" height="2.831"/>
	<rect x="340.53" y="288.173" style="fill:#E64717;" width="25.471" height="2.831"/>
	<rect x="340.53" y="300.494" style="fill:#E64717;" width="15.073" height="2.831"/>
</g>
<g>
	<rect x="221.092" y="275.852" style="fill:#3E4959;" width="25.478" height="2.831"/>
	<rect x="232.415" y="288.173" style="fill:#3E4959;" width="14.158" height="2.831"/>
	<rect x="221.092" y="288.173" style="fill:#3E4959;" width="7.082" height="2.831"/>
	<rect x="232.977" y="300.494" style="fill:#3E4959;" width="6.504" height="2.831"/>
	<rect x="221.092" y="300.494" style="fill:#3E4959;" width="10.045" height="2.831"/>
</g>
<g>
	<rect x="289.561" y="288.173" style="fill:#FFFFFF;" width="25.478" height="2.831"/>
	<rect x="302.311" y="238.889" style="fill:#FFFFFF;" width="12.741" height="2.828"/>
	<rect x="289.561" y="238.889" style="fill:#FFFFFF;" width="8.889" height="2.828"/>
	<rect x="289.561" y="251.21" style="fill:#FFFFFF;" width="25.478" height="2.831"/>
	<rect x="289.561" y="263.531" style="fill:#FFFFFF;" width="18.006" height="2.828"/>
</g>
<g>
	<rect x="340.53" y="238.889" style="fill:#3E4959;" width="25.471" height="2.828"/>
	<rect x="340.53" y="251.21" style="fill:#3E4959;" width="15.532" height="2.831"/>
	<rect x="359.358" y="251.21" style="fill:#3E4959;" width="6.639" height="2.831"/>
	<rect x="340.53" y="263.531" style="fill:#3E4959;" width="11.323" height="2.828"/>
</g>
<path style="fill:#242D3C;" d="M387.64,131.908v154.951c14.865,0,26.915,12.057,26.915,26.921V158.826
	C414.555,143.961,402.505,131.908,387.64,131.908z"/>
<polygon style="fill:#FFFFFF;" points="164.93,380.092 149.012,372.138 164.93,364.181 "/>
<rect x="164.93" y="364.181" style="fill:#FFB733;" width="249.625" height="15.912"/>
<rect x="164.93" y="364.181" style="fill:#FFD55C;" width="249.625" height="7.957"/>
<polygon style="fill:#242D3C;" points="155.245,375.256 149.012,372.138 155.245,369.013 "/>
<rect x="395.594" y="364.181" style="fill:#FFFFFF;" width="5.619" height="15.912"/>
<g>
	<rect x="401.21" y="364.181" style="fill:#242D3C;" width="13.345" height="15.912"/>
	<rect x="97.445" y="158.819" style="fill:#242D3C;" width="29.504" height="221.267"/>
</g>
<g>
	<rect x="97.445" y="371.613" style="fill:#FFFFFF;" width="8.185" height="2.223"/>
	<rect x="97.445" y="356.847" style="fill:#FFFFFF;" width="8.185" height="2.223"/>
	<rect x="97.448" y="342.115" style="fill:#FFFFFF;" width="8.182" height="2.216"/>
	<rect x="97.445" y="327.35" style="fill:#FFFFFF;" width="8.185" height="2.216"/>
	<rect x="97.448" y="312.617" style="fill:#FFFFFF;" width="8.185" height="2.223"/>
	<rect x="97.445" y="297.852" style="fill:#FFFFFF;" width="8.182" height="2.216"/>
	<rect x="97.445" y="283.086" style="fill:#FFFFFF;" width="8.189" height="2.22"/>
	<rect x="97.445" y="268.354" style="fill:#FFFFFF;" width="8.185" height="2.223"/>
	<rect x="97.445" y="253.589" style="fill:#FFFFFF;" width="8.182" height="2.22"/>
	<rect x="97.445" y="238.856" style="fill:#FFFFFF;" width="8.185" height="2.223"/>
	<rect x="97.448" y="224.097" style="fill:#FFFFFF;" width="8.185" height="2.22"/>
	<rect x="97.445" y="201.959" style="fill:#FFFFFF;" width="4.314" height="2.22"/>
	<rect x="97.445" y="187.217" style="fill:#FFFFFF;" width="4.314" height="2.223"/>
	<rect x="97.445" y="172.461" style="fill:#FFFFFF;" width="4.317" height="2.223"/>
	<rect x="97.448" y="364.247" style="fill:#FFFFFF;" width="4.314" height="2.216"/>
	<rect x="97.445" y="349.481" style="fill:#FFFFFF;" width="4.314" height="2.223"/>
	<rect x="97.448" y="334.716" style="fill:#FFFFFF;" width="4.314" height="2.22"/>
	<rect x="97.448" y="319.983" style="fill:#FFFFFF;" width="4.311" height="2.22"/>
	<rect x="97.445" y="305.218" style="fill:#FFFFFF;" width="4.311" height="2.22"/>
	<rect x="97.445" y="290.486" style="fill:#FFFFFF;" width="4.317" height="2.22"/>
	<rect x="97.448" y="275.72" style="fill:#FFFFFF;" width="4.307" height="2.22"/>
	<rect x="97.448" y="260.988" style="fill:#FFFFFF;" width="4.307" height="2.22"/>
	<rect x="97.448" y="246.222" style="fill:#FFFFFF;" width="4.311" height="2.22"/>
	<rect x="97.445" y="231.49" style="fill:#FFFFFF;" width="4.311" height="2.216"/>
	<rect x="97.445" y="216.725" style="fill:#FFFFFF;" width="4.311" height="2.22"/>
	<rect x="97.448" y="209.358" style="fill:#FFFFFF;" width="8.189" height="2.216"/>
	<rect x="97.445" y="194.593" style="fill:#FFFFFF;" width="8.189" height="2.22"/>
	<rect x="97.448" y="179.861" style="fill:#FFFFFF;" width="8.182" height="2.216"/>
	<rect x="97.448" y="165.092" style="fill:#FFFFFF;" width="8.182" height="2.22"/>
</g>
<g>
</g>
<g>
</g>
<g>
</g>
<g>
</g>
<g>
</g>
<g>
</g>
<g>
</g>
<g>
</g>
<g>
</g>
<g>
</g>
<g>
</g>
<g>
</g>
<g>
</g>
<g>
</g>
<g>
</g>
</svg>
